<svg width="121" height="167" viewBox="0 0 121 167" fill="none" xmlns="http://www.w3.org/2000/svg">
<g opacity="0.62" clip-path="url(#clip0_71_20)">
<path d="M12.868 85.4133C13.7545 76.712 16.3859 68.3475 17.8603 59.7584C18.3829 56.7363 19.5866 53.6113 15.7981 51.5904C14.3517 50.8138 15.3408 49.6255 16.05 48.8864C17.1138 47.773 18.3549 46.8467 19.7266 45.6678C17.0298 42.9545 12.2521 42.5428 10.9551 36.7887C14.1184 40.1008 16.4326 42.7487 19.9879 42.337C21.2196 40.6996 15.1355 39.7547 20.1465 38.3138C19.7732 37.3127 19.456 36.2835 19.0174 35.3104C16.9085 30.6323 14.501 26.0664 12.7094 21.2666C10.8711 16.3546 15.7701 10.9186 20.6131 12.7524C24.0657 14.0623 25.0921 12.7711 26.1839 10.1982C27.7516 6.51178 31.3535 4.50018 33.5463 1.26291C35.0207 -0.917106 43.027 -0.0937534 45.7145 2.49794C47.4221 4.14464 49.0738 4.35984 51.136 4.26627C57.3507 3.99494 63.5747 3.84524 69.5841 1.96463C71.2451 1.45003 72.9248 1.30033 74.6324 1.78686C82.5081 4.03237 90.5797 5.37032 98.6047 6.94217C104.213 8.04621 105.622 10.7876 103.401 16.0084C101.805 19.7509 99.5379 23.1098 97.2797 26.4781C96.5052 27.6383 95.6747 28.7984 95.1241 30.0615C94.4709 31.5773 93.3138 33.2708 94.7789 34.8332C96.0386 36.1712 97.6996 35.273 99.2019 35.0672C100.518 34.8894 102.151 33.5514 103.102 34.9081C104.204 36.48 102.739 37.8928 101.553 38.8471C99.2019 40.7277 101.32 41.9721 101.908 43.572C102.701 45.7427 105.034 48.9893 99.5005 48.035C96.7944 47.5672 97.9702 49.9904 98.1381 50.9073C99.2019 56.5679 99.8085 62.4998 102.477 67.5896C108.552 79.1914 110.521 91.682 111.921 104.444C112.704 111.573 114.431 118.563 117.529 125.103C121.205 132.85 120.748 141.177 120.991 149.41C121.084 152.526 119.507 154.023 116.521 154.959C106.443 158.112 96.1972 158.664 86.166 155.838C73.9885 152.414 62.6602 154.584 52.7223 161.199C42.7191 167.852 34.1529 168.862 24.6349 160.862C19.2413 156.334 12.6814 153.789 5.45889 153.181C1.57704 152.853 -0.186592 150.299 0.00936709 146.388C0.56925 134.88 0.681226 123.334 1.79166 111.882C2.66881 102.863 7.86639 95.3497 12.3548 87.7056C11.8042 89.6517 11.4683 91.682 10.6658 93.5159C5.26293 105.866 3.15404 118.787 3.73259 132.204C4.18982 142.749 4.37645 142.898 14.2117 141.439C13.12 143.712 9.95662 143.282 8.85551 145.658C11.9629 146.631 14.1931 144.218 16.5632 144.012C17.5057 145.864 14.2397 145.668 15.5181 147.127C15.9474 147.623 17.1045 148.587 18.3549 147.923C21.8448 146.061 19.5119 143.263 18.9614 139.642C20.977 142.262 22.0781 143.946 23.4405 145.378C24.9615 146.978 25.708 150.57 28.0875 149.775C30.383 149.008 30.2337 145.593 30.4483 143.104C30.4857 142.636 30.4483 142.169 30.5043 141.701C31.8294 130.005 30.0098 118.497 28.3861 106.98C27.4716 100.505 26.6225 94.0117 25.6053 87.5559C25.428 86.4519 24.9428 84.328 23.7764 84.8239C22.6846 85.2917 20.4731 85.1888 20.3984 87.5653C20.3518 88.9126 20.0998 90.5031 18.3455 92.2528C18.5881 81.5024 23.3285 71.697 19.8199 61.6484C16.7872 69.4328 16.134 77.7786 12.8493 85.3853L12.868 85.4133ZM71.3198 144.77L71.8983 146.192C74.3245 146.304 76.76 146.341 79.1768 146.538C85.6061 147.062 91.6622 144.433 98.1008 144.564C105.426 144.713 109.522 139.717 110.745 132.429C113.348 116.944 107.861 102.395 105.734 87.5653C103.784 73.9519 98.5767 60.825 94.9468 47.4455C94.2563 44.8913 93.1552 44.0211 90.4304 44.096C87.1458 44.1895 83.8145 43.5159 81.5376 40.0166C85.8207 38.3044 89.1427 43.5627 93.0712 40.9335C92.5207 38.6132 90.757 38.0705 88.8628 37.7805C86.7912 37.453 84.1691 37.874 82.7507 36.7513C80.4085 34.8894 84.8409 32.8591 83.4319 30.3703C81.435 30.6136 80.9124 33.5234 78.169 33.2708C79.7087 30.0241 84.0758 26.2442 84.5423 26.8711C87.3231 30.5761 87.5004 25.6735 88.9561 25.8606C89.2733 28.0032 87.2951 29.6218 87.8363 31.7925C90.9903 32.438 93.1272 31.5024 93.9857 28.1716C94.5269 26.0664 95.2921 24.0174 95.8893 21.9216C97.5503 16.0895 95.7555 11.8262 90.5051 9.13154C90.2345 8.9912 90.0385 8.65437 89.7586 8.57952C83.012 6.77376 76.5267 3.90138 69.1269 5.72585C59.1983 8.18656 49.1484 10.956 39.901 3.03124C37.7455 1.18806 34.7408 2.06755 34.0502 5.74457C32.3706 14.7827 30.6723 23.8115 29.0206 32.8497C28.6194 35.0297 29.3099 36.639 31.8107 36.6577C38.604 36.7139 45.7425 37.977 52.0691 36.2554C56.7535 34.983 59.7302 35.9841 63.5841 37.8553C56.9961 39.8389 50.0162 36.4238 43.9882 40.3909C43.7455 40.5499 43.0364 40.2599 42.7098 39.9792C38.6413 36.4706 35.2073 38.1922 31.4375 40.8306C29.6458 42.0844 27.6489 42.4306 27.6862 45.2842C27.7329 48.7648 31.1109 46.0608 32.128 48.1192C28.3674 48.6151 27.425 51.1038 27.313 54.3879C27.117 60.1514 27.257 65.8961 27.4623 71.6596C27.8355 82.1573 32.4452 92.2808 30.0937 102.994C29.9444 103.686 30.3737 104.509 30.523 105.277C31.6241 110.919 33.5557 116.551 33.6117 122.202C33.6956 130.716 34.4422 139.371 32.3613 147.801C31.8107 150.018 32.4452 150.907 34.7874 151.02C48.0193 151.693 59.5342 145.05 71.9636 142.318C73.1207 142.066 73.8486 140.447 76.704 141.158C74.3618 142.73 72.8315 143.759 71.2918 144.788L71.3198 144.77ZM107.609 147.221C99.6498 146.678 91.7928 146.669 84.0758 148.559C92.0074 149.036 100.116 152.498 107.609 147.221ZM52.7317 153.742C49.0271 156.671 44.5387 152.881 40.8808 155.192C40.7408 155.277 39.9103 154.734 39.929 154.528C40.2649 149.728 36.5137 152.891 35.9818 153.106C32.9305 154.285 36.3364 155.221 36.3738 156.381C36.4951 160.479 39.6024 159.094 41.394 158.739C45.4812 157.925 49.279 156.128 52.741 153.752L52.7317 153.742ZM27.1357 32.1574C28.6194 24.7098 30.355 17.2902 30.215 9.62742C23.0299 16.3639 29.002 24.7472 27.1357 32.1574V32.1574ZM22.554 33.1772C22.498 27.6476 21.2756 22.5297 19.3533 17.599C18.9801 16.6353 18.4575 15.2506 17.0858 15.9242C16.078 16.4107 16.6286 17.6083 16.9458 18.4504C18.7934 23.3718 20.6784 28.2745 22.554 33.1865V33.1772ZM23.1605 39.5862C20.4078 32.0264 16.9831 24.7659 13.9878 17.3183C15.1355 25.5331 19.4 32.4661 23.1605 39.5862ZM82.704 152.264H94.7975C90.8037 151.01 86.7445 151.122 82.704 152.264ZM23.2912 16.9815C22.9459 20.2936 23.4871 23.4092 24.7562 26.4032C24.7935 23.166 25.5867 19.8351 23.2912 16.9815ZM40.8341 162.266C44.0628 163.669 46.6383 162.453 48.7005 159.796L40.8341 162.266Z" fill="white"/>
<path d="M58.965 29.8933C54.7752 34.927 52.3584 35.6287 46.4703 33.5516C47.6554 31.2406 49.8762 30.1178 51.7892 28.2185C52.7596 34.9176 56.1283 29.519 58.965 29.8839V29.8933Z" fill="white"/>
<path d="M16.5166 38.0988C16.5166 38.0988 12.644 32.3821 11.2163 33.168C9.78863 33.9539 11.2163 37.6964 11.2163 37.6964L12.0655 39.5677C12.0655 39.5677 8.98613 36.3679 9.46203 33.0838C9.93793 29.7997 12.952 32.2137 13.9877 33.1586C15.0235 34.1036 19.5306 38.4824 19.5306 38.4824L18.1495 39.5583L16.5072 38.0801L16.5166 38.0988Z" fill="white"/>
<path d="M48.2152 45.7428L52.7223 44.3113L51.5559 47.4924C51.5559 47.4924 49.8109 48.4468 48.2246 45.7428H48.2152Z" fill="white"/>
<path d="M73.7926 33.9634C73.7926 33.9634 79.5127 27.4327 79.3541 25.524C79.1954 23.6153 75.8641 29.3507 74.903 30.4641C73.9419 31.5775 71.9356 36.1995 73.7926 33.9634Z" fill="white"/>
<path d="M58.965 44.3113C59.2263 42.3558 65.0491 43.1979 66.4768 43.6751C67.9045 44.1522 65.9542 46.2293 62.7162 45.9861C59.4782 45.7428 58.4331 48.2971 58.9557 44.3113H58.965Z" fill="white"/>
<path d="M69.3321 34.5622C70.6105 34.2254 74.4644 37.4627 76.1907 37.1445C77.917 36.8264 78.1503 40.3257 73.0274 38.2579C67.9044 36.1902 66.4674 35.3201 69.3321 34.5622V34.5622Z" fill="white"/>
<path d="M49.4936 146.894C49.4936 146.894 60.2901 143.844 62.203 141.617C64.1159 139.39 59.1889 141.776 55.8483 142.73C52.5077 143.684 44.0348 148.634 49.4936 146.894V146.894Z" fill="white"/>
<path d="M13.3252 129.678C10.8991 127.245 12.6907 139.39 13.3252 137.481C13.9598 135.572 15.0702 131.428 13.3252 129.678Z" fill="white"/>
</g>
<defs>
<clipPath id="clip0_71_20">
<rect width="121" height="166.514" fill="white"/>
</clipPath>
</defs>
</svg>
